<svg xmlns="http://www.w3.org/2000/svg" viewBox="0 0 496 496"><path fill="#1DB954" d="M248 8C115.456 8 8 115.456 8 248s107.456 240 240 240 240-107.456 240-240S380.544 8 248 8zm114.368 346.368c-4.48 7.36-13.92 9.6-21.28 5.12-58.4-35.68-131.84-43.68-218.4-23.84-8.48 1.92-16.96-3.36-18.88-11.84-1.92-8.48 3.36-16.96 11.84-18.88 94.72-21.6 176-12.32 241.28 27.68 7.52 4.48 9.76 14.08 5.44 21.76zm28.32-65.12c-5.6 9.12-17.6 12-26.72 6.4-66.88-41.12-168.8-52.96-248-28.96-10.24 3.04-21.12-2.88-24.16-13.12-3.04-10.24 2.88-21.12 13.12-24.16 90.72-27.52 203.2-14.24 280 33.12 8.96 5.6 11.84 17.44 5.76 26.72zm2.56-68c-80.16-47.52-212.8-52-289.44-28.64-12.32 3.68-25.28-3.36-28.96-15.68-3.68-12.32 3.36-25.28 15.68-28.96 87.84-26.72 234.24-21.28 326.24 33.28 11.04 6.56 14.72 20.8 8.16 31.84-6.56 11.04-20.8 14.72-31.68 8.16z"/></svg>
